<svg id="Layer_1" data-name="Layer 1" xmlns="http://www.w3.org/2000/svg" width="400" height="600" xmlns:xlink="http://www.w3.org/1999/xlink" viewBox="0 0 400 600"><defs><style>.cls-1{fill:#f7f7f7;}.cls-2{fill:#e6e6e5;}.cls-3{fill:url(#linear-gradient);}.cls-4{fill:url(#linear-gradient-2);}.cls-5{fill:url(#linear-gradient-3);}.cls-6{fill:#4e4e4e;}.cls-7{fill:#989898;}</style><linearGradient id="linear-gradient" x1="143.33" y1="117.15" x2="217.88" y2="246.27" gradientUnits="userSpaceOnUse"><stop offset="0" stop-color="#d22027"/><stop offset="0.15" stop-color="#d32827"/><stop offset="0.37" stop-color="#d53c27"/><stop offset="0.65" stop-color="#d95e26"/><stop offset="0.95" stop-color="#df8d26"/><stop offset="1" stop-color="#e09526"/></linearGradient><linearGradient id="linear-gradient-2" x1="216.83" y1="399.83" x2="216.83" y2="256.27" gradientUnits="userSpaceOnUse"><stop offset="0" stop-color="#089bc9"/><stop offset="0.31" stop-color="#0a9bc7"/><stop offset="0.48" stop-color="#109bbf"/><stop offset="0.61" stop-color="#1b9cb1"/><stop offset="0.72" stop-color="#2b9c9e"/><stop offset="0.81" stop-color="#409c86"/><stop offset="0.91" stop-color="#599d67"/><stop offset="0.99" stop-color="#769e44"/><stop offset="1" stop-color="#7b9e3e"/></linearGradient><linearGradient id="linear-gradient-3" x1="220.66" y1="226.79" x2="292.96" y2="226.79" gradientUnits="userSpaceOnUse"><stop offset="0" stop-color="#fbdc1e"/><stop offset="0" stop-color="#fbdc1e"/><stop offset="0.44" stop-color="#f9b520"/><stop offset="0.79" stop-color="#f79d21"/><stop offset="1" stop-color="#f79421"/></linearGradient></defs><rect class="cls-1" width="400" height="600"/><path class="cls-2" d="M308,428.07A105.24,105.24,0,1,1,413.23,322.83,105.37,105.37,0,0,1,308,428.07Zm0-185.72a80.48,80.48,0,1,0,80.48,80.48A80.57,80.57,0,0,0,308,242.35Z" transform="translate(-106.33 -96.23)"/><rect class="cls-2" x="178.53" y="97.61" width="46.24" height="30.56"/><rect class="cls-2" x="178.53" y="324.39" width="46.24" height="30.56"/><rect class="cls-2" x="398.58" y="307.55" width="46.24" height="30.56" transform="translate(638.2 -195.1) rotate(90)"/><rect class="cls-2" x="171.8" y="307.55" width="46.24" height="30.56" transform="translate(411.41 31.69) rotate(90)"/><rect class="cls-2" x="365.28" y="387.96" width="46.23" height="30.56" transform="translate(841.83 317.48) rotate(135)"/><rect class="cls-2" x="204.91" y="227.6" width="46.23" height="30.56" transform="translate(454.68 157.16) rotate(135)"/><rect class="cls-2" x="204.46" y="387.96" width="46.23" height="30.56" transform="translate(-2.97 753.07) rotate(-135)"/><polygon class="cls-2" points="253.34 143.25 286.03 175.95 308.76 152.19 276.07 119.5 253.34 143.25"/><polygon class="cls-3" points="226.17 69.32 109.19 249.33 212.58 249.33 238.62 204.25 186.55 204.25 226.17 69.32"/><polygon class="cls-4" points="171.27 399.83 262.39 256.27 215.13 256.27 171.27 399.83"/><polygon class="cls-5" points="266.23 249.33 292.96 204.25 246.81 204.25 220.66 249.33 266.23 249.33"/><path class="cls-6" d="M154.81,577.38h6.61V537.23h-6.61v-8.89H179v8.89h-7.66v40.24h15.94v-8.19h9.59v17H154.81Z" transform="translate(-106.33 -96.23)"/><path class="cls-6" d="M202.1,557.31c0-17,12.33-30,29.94-30s29.5,13.12,29.5,30-12.33,30-29.94,30S202.1,574.21,202.1,557.31Zm49.14,0c0-12.07-8.19-20.79-19.38-20.79s-19.46,8.63-19.46,20.79,8.19,20.78,19.46,20.78S251.24,569.46,251.24,557.31Z" transform="translate(-106.33 -96.23)"/><path class="cls-6" d="M268.85,577.38h6.6V537.23h-6.6v-8.89h43.23v16.55h-9.51v-7.75H285.4v15.5h17.53v8.45H285.4v16.38h17.26v-7.75h9.51v16.56H268.85Z" transform="translate(-106.33 -96.23)"/><path class="cls-6" d="M323.71,537.23h-6.16v-8.89H342.2v8.89h-7.66L344,567.7,358.32,534h5.28L378,567.7l8.81-30.47h-7.93v-8.89h24.66v8.89h-6.17l-15.58,49.66h-5.55l-15.5-35.66-15.58,35.66h-5.55Z" transform="translate(-106.33 -96.23)"/><path class="cls-6" d="M421.63,577.38h7.31V564.17l-16.47-26.94h-5.81v-8.89h21.93v8.89h-5.11l10.65,18.58,10.57-18.58h-5.46v-8.89h21.93v8.89h-5.81l-16.47,26.94v13.21h7.31v8.9H421.63Z" transform="translate(-106.33 -96.23)"/><path class="cls-7" d="M190.49,598.64h2.34v20.74h-2.34Z" transform="translate(-106.33 -96.23)"/><path class="cls-7" d="M207.8,598.64H210l13.07,16.62V598.64h2.28v20.74h-1.86l-13.4-17v17H207.8Z" transform="translate(-106.33 -96.23)"/><path class="cls-7" d="M238.74,616.36l1.45-1.72a9.86,9.86,0,0,0,7.11,2.94c2.79,0,4.62-1.49,4.62-3.53V614c0-1.93-1-3-5.39-3.94-4.77-1-7-2.58-7-6V604c0-3.26,2.87-5.66,6.81-5.66a10.8,10.8,0,0,1,7.29,2.55l-1.36,1.81a9.12,9.12,0,0,0-6-2.25c-2.69,0-4.41,1.48-4.41,3.35v.06c0,1.95,1.07,3,5.63,4s6.76,2.69,6.76,5.86v.06c0,3.56-3,5.87-7.09,5.87A12.14,12.14,0,0,1,238.74,616.36Z" transform="translate(-106.33 -96.23)"/><path class="cls-7" d="M273,600.8h-7v-2.16h16.3v2.16h-7v18.58H273Z" transform="translate(-106.33 -96.23)"/><path class="cls-7" d="M295.82,598.64h2.34v20.74h-2.34Z" transform="translate(-106.33 -96.23)"/><path class="cls-7" d="M318.6,600.8h-7v-2.16h16.3v2.16h-7v18.58H318.6Z" transform="translate(-106.33 -96.23)"/><path class="cls-7" d="M340.89,610.7V598.64h2.34v11.91c0,4.48,2.4,7,6.34,7s6.26-2.31,6.26-6.85V598.64h2.34v11.88c0,6.05-3.47,9.19-8.66,9.19S340.89,616.57,340.89,610.7Z" transform="translate(-106.33 -96.23)"/><path class="cls-7" d="M378.08,600.8h-7v-2.16h16.3v2.16h-7v18.58h-2.37Z" transform="translate(-106.33 -96.23)"/><path class="cls-7" d="M400.69,598.64h15v2.13H403v7.09h11.31V610H403v7.26h12.8v2.13H400.69Z" transform="translate(-106.33 -96.23)"/></svg>